<svg xmlns="http://www.w3.org/2000/svg" fill="none" viewBox="-0.5 -0.5 250 250" id="Abstract-Avatar-39-Circle--Streamline-Abstract.svg" height="250" width="250"><desc>Abstract Avatar 39 Circle Streamline Emoji: https://streamlinehq.com</desc><g clip-path="url(#a)"><path fill="#fafafa" d="M0.3368538011695906 0.1363918128654971h248.51461988304092v248.51461988304092h-248.51461988304092z" stroke-width="1"></path><path fill="#ffce51" d="m155.86526315789473 15.532163742690058 10.469649122807017 71.0314970760234 30.94201169590643 -64.78975146198829 -10.932701754385965 70.96184502923975L235.00794736842104 39.94455087719298 203.64559649122808 104.53146198830409l62.06215789473684 -36.10208771929825 -49.00640350877193 52.47298830409356 69.94618713450292 -16.204415204678362 -62.29611111111111 35.696795321637424 71.61443859649123 5.131438596491227 -70.05005847953215 15.749128654970761 66.92032748538011 26.012976608187135 -71.57997660818714 -5.597888888888888 56.27982456140351 44.58216374269006 -66.74898830409357 -26.448362573099416 40.6379649122807 59.19064912280702 -55.98811111111111 -44.94862573099415 21.386333333333333 68.54004093567251 -40.252087719298245 -59.45469590643275 0.233953216374269 71.79839766081871 -20.939783625730993 -68.67740350877192 -20.939783625730993 68.67740350877192 0.23443859649122806 -71.79839766081871 -40.25257309941521 59.45469590643275 21.38681871345029 -68.54004093567251 -55.988596491228066 44.94862573099415 40.63893567251462 -59.19064912280702 -66.75010467836256 26.448362573099416 56.27997017543859 -44.58216374269006 -71.58012222222222 5.597888888888888L85.81520467836258 161.27530994152048 15.764660818713448 145.5261812865497l71.61540935672514 -5.131438596491227 -62.29649941520467 -35.696795321637424 69.94657543859648 16.204415204678362L46.02316023391813 68.42937426900585 108.0849298245614 104.53146198830409 76.72257894736842 39.94455087719298l48.66421052631579 52.79120350877193 -10.932701754385965 -70.96184502923975 30.94201169590643 64.78975146198829L155.86526315789473 15.532163742690058Z" stroke-width="1"></path><path stroke="#000000" stroke-linecap="round" stroke-width="1" d="M173.33894736842103 168.34729824561404c0 4.825163742690059 -3.9121637426900584 8.736842105263158 -8.737812865497075 8.736842105263158 -4.756239766081871 0 -8.625204678362572 -3.7995555555555556 -8.73587134502924 -8.52861403508772"></path><path stroke="#000000" stroke-linecap="round" stroke-width="1" d="M155.86526315789473 168.34729824561404c0 4.825163742690059 -3.9121637426900584 8.736842105263158 -8.737812865497075 8.736842105263158 -4.756239766081871 0 -8.625204678362572 -3.7995555555555556 -8.73587134502924 -8.52861403508772"></path><path fill="#000000" d="M173.33894736842103 139.22449122807018a5.824561403508771 5.824561403508771 0 1 0 11.649122807017543 0 5.824561403508771 5.824561403508771 0 1 0 -11.649122807017543 0" stroke-width="1"></path><path fill="#000000" d="M126.74245614035087 139.22449122807018a5.824561403508771 5.824561403508771 0 1 0 11.649122807017543 0 5.824561403508771 5.824561403508771 0 1 0 -11.649122807017543 0" stroke-width="1"></path></g><defs><clipPath id="a"><path fill="#ffffff" d="M124.53349122807018 0s124.25730994152046 0 124.25730994152046 124.25730994152046 0 124.25730994152046 -124.25730994152046 124.25730994152046 -124.25730994152046 0 -124.25730994152046 -124.25730994152046 0 -124.25730994152046 124.25730994152046 -124.25730994152046" stroke-width="1"></path></clipPath></defs></svg>