<svg xmlns="http://www.w3.org/2000/svg" fill="none" viewBox="-0.5 -0.5 250 250" id="Abstract-Avatar-26-Circle--Streamline-Abstract.svg" height="250" width="250"><desc>Abstract Avatar 26 Circle Streamline Emoji: https://streamlinehq.com</desc><g clip-path="url(#a)"><path fill="#fafafa" d="M0.3368538011695906 0.1363918128654971h248.51461988304092v248.51461988304092h-248.51461988304092z" stroke-width="1"></path><path fill="#f4583e" d="m-65.24479532163741 73.49965497076023 -37.130608187134506 -33.16189766081871C-102.37540350877192 159.49639181286548 -62.274269005847955 262.10526315789474 46.147660233918124 262.10526315789474 154.569783625731 262.10526315789474 194.67091812865496 159.49639181286548 194.67091812865496 40.33775730994152l-37.130608187134506 33.16189766081871 -37.131093567251455 -33.16189766081871 -37.130608187134506 33.16189766081871 -37.13094795321637 -33.16189766081871 -37.130850877192984 33.16189766081871 -37.13080233918129 -33.16189766081871 -37.13080233918129 33.16189766081871Z" stroke-width="1"></path><path stroke="#000000" stroke-linecap="round" stroke-width="1" d="M91.77033333333333 133.96491228070175c-4.825649122807017 5.17706432748538 -12.649005847953216 5.1775497076023385 -17.473684210526315 0.0014561403508771928"></path><path stroke="#000000" stroke-linecap="round" stroke-width="1" d="M132.54226315789475 133.96491228070175c-4.825649122807017 5.17706432748538 -12.649005847953216 5.1775497076023385 -17.473684210526315 0.0014561403508771928"></path><path stroke="#000000" stroke-linecap="round" stroke-width="1" d="M88.85805263157894 161.14619883040936c8.042748538011695 7.765111111111111 21.08102923976608 7.766081871345029 29.12280701754386 0.0019415204678362573"></path><path fill="#000000" d="M111.1855380116959 168.91228070175438c0 7.5059181286549705 -3.4772631578947366 13.5906432748538 -7.766081871345029 13.5906432748538 -4.289304093567251 0 -7.766081871345029 -6.08472514619883 -7.766081871345029 -13.5906432748538h15.532163742690058Z" stroke-width="1"></path></g><defs><clipPath id="a"><path fill="#ffffff" d="M124.53349122807018 0s124.25730994152046 0 124.25730994152046 124.25730994152046 0 124.25730994152046 -124.25730994152046 124.25730994152046 -124.25730994152046 0 -124.25730994152046 -124.25730994152046 0 -124.25730994152046 124.25730994152046 -124.25730994152046" stroke-width="1"></path></clipPath></defs></svg>