<svg xmlns="http://www.w3.org/2000/svg" fill="none" viewBox="-0.5 -0.5 250 250" id="Abstract-Avatar-15-Circle--Streamline-Abstract.svg" height="250" width="250"><desc>Abstract Avatar 15 Circle Streamline Emoji: https://streamlinehq.com</desc><g clip-path="url(#a)"><path fill="#fafafa" d="M0.3368538011695906 0.1363918128654971h248.51461988304092v248.51461988304092h-248.51461988304092z" stroke-width="1"></path><path fill="#3290ff" d="M135.7724678362573 69.37683625730993 172.02065497076023 34.94736842105263l36.247701754385965 34.42946783625731 24.4825730994152 -20.657777777777778 15.913672514619883 40.33217543859649 45.29276023391812 -6.886087719298245 -11.629222222222221 50.16888888888889 45.90482456140351 19.673912280701753 -30.603216374269003 50.16888888888889 19.586058479532163 30.49497660818713L282.32814035087716 256.280701754386l-110.30748538011694 -2.082766081871345L61.713169590643275 256.280701754386l-34.887763742690055 -23.608888888888888 19.586058479532163 -30.49497660818713 -30.603216374269003 -50.16888888888889 45.904921637426895 -19.673912280701753 -11.629222222222221 -50.16888888888889 45.29276023391812 6.886087719298245 15.913672514619883 -40.33217543859649 24.482087719298246 20.657777777777778Z" stroke-width="1"></path><path stroke="#000000" stroke-linecap="round" stroke-linejoin="round" stroke-width="1" d="M119.67969005847952 159.20467836257308c8.042748538011695 7.765111111111111 21.08102923976608 7.766081871345029 29.12280701754386 0.0019415204678362573l-29.12280701754386 -0.0019415204678362573Z"></path><path stroke="#000000" stroke-linecap="round" stroke-width="1" d="M122.5919707602339 126.19883040935672c-4.825649122807017 5.17706432748538 -12.649005847953216 5.1775497076023385 -17.473684210526315 0.0014561403508771928"></path><path stroke="#000000" stroke-linecap="round" stroke-width="1" d="M163.36390058479532 126.19883040935672c-4.825649122807017 5.17706432748538 -12.649005847953216 5.1775497076023385 -17.473684210526315 0.0014561403508771928"></path></g><defs><clipPath id="a"><path fill="#ffffff" d="M124.53349122807018 0s124.25730994152046 0 124.25730994152046 124.25730994152046 0 124.25730994152046 -124.25730994152046 124.25730994152046 -124.25730994152046 0 -124.25730994152046 -124.25730994152046 0 -124.25730994152046 124.25730994152046 -124.25730994152046" stroke-width="1"></path></clipPath></defs></svg>