<svg xmlns="http://www.w3.org/2000/svg" fill="none" viewBox="-0.5 -0.5 250 250" id="Abstract-Avatar-34-Circle--Streamline-Abstract.svg" height="250" width="250"><desc>Abstract Avatar 34 Circle Streamline Emoji: https://streamlinehq.com</desc><g clip-path="url(#a)"><path fill="#fafafa" d="M0.3368538011695906 0.1363918128654971h248.51461988304092v248.51461988304092h-248.51461988304092z" stroke-width="1"></path><path fill="#80d9ff" d="M124.53349122807018 198.03508771929825c58.97465497076023 0 106.78362573099415 -47.751695906432744 106.78362573099415 -106.65645614035087 -31.944807017543855 0 -57.84177777777778 -25.865906432748535 -57.84177777777778 -57.7726596491228l0 -42.1023081871345H75.59115789473684l0 42.1023081871345c0 31.90675321637427 -25.896485380116957 57.7726596491228 -57.8413894736842 57.7726596491228C17.749768421052632 150.2833918128655 65.55835087719298 198.03508771929825 124.53349122807018 198.03508771929825Z" stroke-width="1"></path><path stroke="#000000" stroke-linecap="round" stroke-linejoin="round" stroke-width="1" d="m97.35220467836257 100.95906432748538 11.649122807017543 6.796292397660818L97.560432748538 114.54970760233917"></path><path fill="#000000" d="M143.94869590643276 107.75438596491227a5.824561403508771 5.824561403508771 0 1 0 11.649122807017543 0 5.824561403508771 5.824561403508771 0 1 0 -11.649122807017543 0" stroke-width="1"></path><path stroke="#000000" stroke-linecap="round" stroke-width="1" d="M110.94284795321636 133.96491228070175c8.042748538011695 7.765111111111111 21.08102923976608 7.766081871345029 29.12280701754386 0.0019415204678362573"></path></g><defs><clipPath id="a"><path fill="#ffffff" d="M124.53349122807018 0s124.25730994152046 0 124.25730994152046 124.25730994152046 0 124.25730994152046 -124.25730994152046 124.25730994152046 -124.25730994152046 0 -124.25730994152046 -124.25730994152046 0 -124.25730994152046 124.25730994152046 -124.25730994152046" stroke-width="1"></path></clipPath></defs></svg>