<svg xmlns="http://www.w3.org/2000/svg" fill="none" viewBox="-0.5 -0.5 250 250" id="Abstract-Avatar-29-Circle--Streamline-Abstract.svg" height="250" width="250"><desc>Abstract Avatar 29 Circle Streamline Emoji: https://streamlinehq.com</desc><g clip-path="url(#a)"><path fill="#fafafa" d="M0.3368538011695906 0.1363918128654971h248.51461988304092v248.51461988304092h-248.51461988304092z" stroke-width="1"></path><path fill="#ffa04b" d="M143.14199415204678 215.50877192982455c0 -6.200245614035087 3.9961345029239768 -11.660286549707601 9.818269005847954 -13.791590643274853 32.433584795321636 -11.872397660818713 81.03566666666666 -36.34477777777778 81.03566666666666 -76.39300584795322l-3.3947485380116955 0 -2.589502923976608 -0.24026315789473682c-2.4002046783625732 -0.2227894736842105 -3.81266081871345 -3.0001345029239763 -2.6894912280701755 -5.288701754385965l2.461362573099415 -5.0168888888888885c1.2212163742690059 -2.4885438596491225 -0.5547894736842105 -5.455187134502924 -3.170017543859649 -5.29646783625731l-5.273169590643275 0.32035087719298244c-2.4050584795321637 0.14609941520467834 -4.1713567251461985 -2.3870994152046783 -3.3631988304093565 -4.8241929824561405l1.7716374269005846 -5.341608187134503c0.8785380116959064 -2.649690058479532 -1.2721812865497075 -5.314912280701754 -3.8398421052631573 -4.758181286549708l-5.17706432748538 1.1226842105263157c-2.361374269005848 0.5120760233918128 -4.44559649122807 -1.7255263157894736 -3.9689532163742687 -4.261152046783625l1.0459941520467835 -5.558087719298245c0.5188713450292397 -2.756473684210526 -1.9638479532163744 -5.066397660818714 -4.431520467836258 -4.122818713450292l-4.975631578947368 1.902204678362573c-2.2696374269005846 0.867859649122807 -4.629070175438597 -1.0285204678362574 -4.493163742690058 -3.6112280701754385l0.29850877192982456 -5.660988304093567c0.1480409356725146 -2.808409356725146 -2.6152280701754385 -4.71498245614035 -4.932918128654971 -3.4039707602339178l-4.672754385964913 2.643380116959064c-2.1313040935672514 1.2051988304093566 -4.7183801169590645 -0.3111286549707602 -4.925637426900584 -2.8884970760233917l-0.45577192982456133 -5.649339181286549c-0.2257017543859649 -2.802099415204678 -3.2132163742690056 -4.266976608187134 -5.333842105263158 -2.6152280701754385l-4.2747426900584795 3.3301929824561403c-1.9497719298245615 1.5192397660818713 -4.711099415204678 0.41354385964912277 -5.258608187134502 -2.105578947368421l-1.199374269005848 -5.522654970760233c-0.5945906432748538 -2.739 -3.7466491228070176 -3.732573099415205 -5.626040935672514 -1.773578947368421l-3.789847953216374 3.9495380116959065c-1.728923976608187 1.8012456140350876 -4.608684210526315 1.1289941520467837 -5.4843099415204675 -1.2809181286549707l-1.9191929824561402 -5.282877192982456c-0.9518304093567251 -2.620567251461988 -4.203391812865497 -3.1224502923976605 -5.804175438596491 -0.8960116959064327l-3.227777777777778 4.488309941520468c-1.4721578947368419 2.047333333333333 -4.412105263157894 1.8216315789473683 -5.597888888888888 -0.43004678362573096l-2.6001812865497076 -4.935830409356725c-1.2896549707602338 -2.4482573099415204 -4.574222222222222 -2.4482573099415204 -5.863877192982455 0l-2.5996959064327485 4.935830409356725c-1.1857836257309942 2.2516783625730996 -4.125730994152047 2.4773801169590643 -5.598374269005848 0.43004678362573096l-3.227777777777778 -4.488309941520468c-1.600783625730994 -2.226438596491228 -4.851859649122807 -1.7245555555555554 -5.804175438596491 0.8960116959064327l-1.9191929824561402 5.282877192982456c-0.8751403508771929 2.409912280701754 -3.7553859649122807 3.0821637426900583 -5.483824561403509 1.2809181286549707l-3.789847953216374 -3.9495380116959065c-1.879877192982456 -1.9589941520467833 -5.03145029239766 -0.965421052631579 -5.626526315789474 1.773578947368421l-1.199374269005848 5.522654970760233c-0.5470233918128655 2.5191228070175438 -3.308350877192982 3.624818713450292 -5.258608187134502 2.105578947368421l-4.2747426900584795 -3.3301929824561403c-2.120140350877193 -1.6517485380116959 -5.108140350877192 -0.18687134502923977 -5.333842105263158 2.6152280701754385l-0.4552865497076023 5.649339181286549c-0.2077426900584795 2.5773684210526313 -2.794333333333333 4.093695906432748 -4.926122807017543 2.8884970760233917l-4.672269005847952 -2.643380116959064c-2.317690058479532 -1.3110116959064326 -5.080959064327485 0.595561403508772 -4.932918128654971 3.4039707602339178l0.29802339181286547 5.660988304093567c0.13590643274853803 2.582707602339181 -2.223526315789474 4.479087719298246 -4.493163742690058 3.6112280701754385l-4.975194736842105 -1.902204678362573c-2.467866666666666 -0.943578947368421 -4.9503918128654965 1.365859649122807 -4.431569005847953 4.122818713450292l1.0456058479532162 5.558087719298245c0.4769345029239766 2.535625730994152 -1.6071906432748537 4.773228070175438 -3.9685649122807014 4.261152046783625l-5.177015789473685 -1.1226842105263157c-2.5678549707602336 -0.5567309941520467 -4.718768421052632 2.1084912280701755 -3.8400847953216375 4.758181286549708l1.7718315789473682 5.341608187134503c0.8081093567251462 2.4370935672514618 -0.9581888888888889 4.970292397660819 -3.363344444444444 4.8241929824561405l-5.273072514619883 -0.32035087719298244c-2.6155678362573096 -0.15871929824561404 -4.391330994152047 2.807923976608187 -3.17035730994152 5.29646783625731l2.461993567251462 5.0168888888888885c1.1227812865497075 2.288567251461988 -0.2896748538011696 5.065912280701753 -2.6898795321637428 5.288701754385965l-2.5894058479532163 0.24026315789473682 -2.672405847953216 0 0.00067953216374269 0.24851461988304094c0.20041345029239765 39.90115789473684 48.66891871345029 64.29684795321637 81.03503567251461 76.14449122807018 5.822619883040936 2.1313040935672514 9.818269005847954 7.591345029239766 9.818269005847954 13.791590643274853 0 6.200245614035087 -3.995649122807017 11.660286549707601 -9.818269005847954 13.791590643274853 -32.36611695906433 11.8476432748538 -80.83462222222222 36.24333333333333 -81.0352298245614 76.14449122807018l-0.0005339181286549708 0.24851461988304094 2.672454385964912 0 2.5894058479532163 0.24026315789473682c2.4002046783625732 0.2227894736842105 3.81266081871345 3.0001345029239763 2.689685380116959 5.288701754385965l-2.461847953216374 5.0168888888888885c-1.221119298245614 2.4885438596491225 0.5548380116959064 5.455187134502924 3.1704058479532162 5.29646783625731l5.273072514619883 -0.32035087719298244c2.405155555555555 -0.14609941520467834 4.171453801169591 2.3870994152046783 3.3632959064327483 4.823707602339181l-1.7717830409356725 5.342093567251462c-0.8786836257309941 2.649690058479532 1.2722298245614034 5.314912280701754 3.8400847953216375 4.758181286549708l5.177015789473685 -1.1226842105263157c2.361374269005848 -0.5120760233918128 4.445499415204678 1.7255263157894736 3.9685649122807014 4.261152046783625l-1.0457999999999998 5.558087719298245c-0.5186286549707602 2.7569590643274853 1.9638479532163744 5.066397660818714 4.4317631578947365 4.122818713450292l4.975194736842105 -1.902204678362573c2.2696374269005846 -0.867859649122807 4.629070175438597 1.0285204678362574 4.493163742690058 3.6112280701754385l-0.29802339181286547 5.660988304093567c-0.1480409356725146 2.808409356725146 2.6152280701754385 4.71498245614035 4.932918128654971 3.4039707602339178l4.672269005847952 -2.643380116959064c2.1317894736842105 -1.2051988304093566 4.7183801169590645 0.3111286549707602 4.926122807017543 2.8880116959064326l0.4552865497076023 5.649824561403508c0.2257017543859649 2.802099415204678 3.2137017543859647 4.266976608187134 5.333842105263158 2.6152280701754385l4.2747426900584795 -3.3301929824561403c1.9502573099415204 -1.5192397660818713 4.711584795321637 -0.41354385964912277 5.258608187134502 2.105578947368421l1.199374269005848 5.522654970760233c0.5950760233918129 2.739 3.7466491228070176 3.732573099415205 5.626526315789474 1.773578947368421l3.789847953216374 -3.9495380116959065c1.7284385964912279 -1.8017309941520467 4.608684210526315 -1.1289941520467837 5.483824561403509 1.2809181286549707l1.9191929824561402 5.282877192982456c0.9523157894736841 2.620567251461988 4.203391812865497 3.1224502923976605 5.804175438596491 0.8960116959064327l3.227777777777778 -4.488309941520468c1.472643274853801 -2.047333333333333 4.412105263157894 -1.8216315789473683 5.598374269005848 0.43004678362573096l2.5996959064327485 4.935830409356725c1.2896549707602338 2.4482573099415204 4.574222222222222 2.4482573099415204 5.863877192982455 0l2.6001812865497076 -4.935830409356725c1.1857836257309942 -2.2516783625730996 4.125730994152047 -2.4773801169590643 5.597888888888888 -0.43004678362573096l3.227777777777778 4.488309941520468c1.600783625730994 2.226438596491228 4.852345029239766 1.7245555555555554 5.804175438596491 -0.8960116959064327l1.9191929824561402 -5.282877192982456c0.875625730994152 -2.409912280701754 3.7553859649122807 -3.0826491228070174 5.4843099415204675 -1.2809181286549707l3.789847953216374 3.9495380116959065c1.879391812865497 1.9589941520467833 5.03145029239766 0.965421052631579 5.626040935672514 -1.773578947368421l1.199374269005848 -5.522654970760233c0.5475087719298245 -2.5191228070175438 3.3088362573099412 -3.624818713450292 5.258608187134502 -2.105578947368421l4.2747426900584795 3.3301929824561403c2.120625730994152 1.6517485380116959 5.108140350877192 0.18687134502923977 5.333842105263158 -2.6152280701754385l0.4552865497076023 -5.649824561403508c0.2077426900584795 -2.5768830409356727 2.7948187134502924 -4.093210526315789 4.926122807017543 -2.8880116959064326l4.672754385964913 2.643380116959064c2.317690058479532 1.3110116959064326 5.080959064327485 -0.595561403508772 4.932918128654971 -3.4039707602339178l-0.29850877192982456 -5.660988304093567c-0.13590643274853803 -2.582707602339181 2.223526315789474 -4.479087719298246 4.493163742690058 -3.6112280701754385l4.975631578947368 1.902204678362573c2.4676725146198826 0.943578947368421 4.9503918128654965 -1.366345029239766 4.431520467836258 -4.122818713450292l-1.0459941520467835 -5.558087719298245c-0.47664327485380115 -2.535625730994152 1.6075789473684208 -4.773228070175438 3.9689532163742687 -4.261152046783625l5.17706432748538 1.1226842105263157c2.56766081871345 0.5567309941520467 4.7183801169590645 -2.1084912280701755 3.8398421052631573 -4.758181286549708l-1.7716374269005846 -5.341608187134503c-0.8081578947368421 -2.4370935672514618 0.958140350877193 -4.970292397660819 3.3631988304093565 -4.8241929824561405l5.273169590643275 0.32035087719298244c2.6152280701754385 0.15871929824561404 4.391233918128655 -2.807923976608187 3.170017543859649 -5.29646783625731l-2.461847953216374 -5.0168888888888885c-1.1226842105263157 -2.288567251461988 0.2897719298245614 -5.065912280701753 2.689976608187134 -5.288701754385965l2.589502923976608 -0.24026315789473682 3.3947485380116955 0c0 -40.04822807017543 -48.60208187134503 -64.5206081871345 -81.03566666666666 -76.39300584795322 -5.8221345029239755 -2.1313040935672514 -9.818269005847954 -7.591345029239766 -9.818269005847954 -13.791590643274853Z" stroke-width="1"></path><path fill="#000000" d="M116.7678947368421 159.43426315789475a7.766081871345029 11.649122807017543 0 1 0 15.532163742690058 0 7.766081871345029 11.649122807017543 0 1 0 -15.532163742690058 0" stroke-width="1"></path><path fill="#000000" d="M104.34167836257309 113.45420467836256c0.5271228070175439 -1.1052105263157894 2.1007251461988306 -1.1052105263157894 2.6283333333333334 0l1.9798654970760232 4.15c0.21259649122807017 0.4446081871345029 0.6353625730994151 0.7518538011695906 1.1241403508771928 0.8164093567251461l4.558690058479532 0.6009005847953216c1.2139356725146198 0.16017543859649122 1.7002865497076023 1.6566023391812863 0.8120409356725146 2.499707602339181l-3.335046783625731 3.1656491228070176c-0.3572397660818713 0.3392807017543859 -0.5188713450292397 0.8363099415204678 -0.42907602339181283 1.321204678362573l0.837280701754386 4.521315789473683c0.2227894736842105 1.2042280701754384 -1.049877192982456 2.128877192982456 -2.126450292397661 1.5449649122807017l-4.04127485380117 -2.1934327485380116c-0.4329590643274854 -0.23540935672514618 -0.9557134502923976 -0.23540935672514618 -1.3891578947368421 0l-4.04127485380117 2.1934327485380116c-1.0760877192982456 0.5839122807017544 -2.349239766081871 -0.3407368421052631 -2.126450292397661 -1.5449649122807017l0.837280701754386 -4.521315789473683c0.0897953216374269 -0.4848947368421052 -0.07183625730994152 -0.9819239766081872 -0.42907602339181283 -1.321204678362573l-3.335046783625731 -3.1656491228070176c-0.8882456140350877 -0.8431052631578947 -0.4018947368421052 -2.3395321637426902 0.8125263157894737 -2.499707602339181l4.558204678362573 -0.6009005847953216c0.4887777777777777 -0.06455555555555556 0.9120292397660819 -0.37180116959064324 1.1241403508771928 -0.8164093567251461l1.9803508771929823 -4.15Z" stroke-width="1"></path><path fill="#000000" d="M142.09697076023392 113.437216374269c0.5276081871345029 -1.1052105263157894 2.101210526315789 -1.1052105263157894 2.6283333333333334 0l1.9803508771929823 4.15c0.2121111111111111 0.4446081871345029 0.6353625730994151 0.7518538011695906 1.123654970760234 0.8164093567251461l4.558690058479532 0.6009005847953216c1.2144210526315788 0.16017543859649122 1.7007719298245614 1.6566023391812863 0.8125263157894737 2.499707602339181l-3.335046783625731 3.1656491228070176c-0.3572397660818713 0.3392807017543859 -0.5188713450292397 0.8363099415204678 -0.42907602339181283 1.321204678362573l0.8367953216374269 4.520830409356725c0.2232748538011696 1.2047134502923977 -1.049877192982456 2.129362573099415 -2.1259649122807014 1.5449649122807017l-4.04127485380117 -2.1929473684210525c-0.4334444444444444 -0.23540935672514618 -0.9561988304093566 -0.23540935672514618 -1.3891578947368421 0l-4.04127485380117 2.1929473684210525c-1.0765730994152045 0.5843976608187134 -2.349239766081871 -0.340251461988304 -2.126450292397661 -1.5449649122807017l0.837280701754386 -4.520830409356725c0.0897953216374269 -0.4848947368421052 -0.07183625730994152 -0.9819239766081872 -0.4295614035087719 -1.321204678362573l-3.3345614035087716 -3.1656491228070176c-0.8882456140350877 -0.8431052631578947 -0.4018947368421052 -2.3395321637426902 0.8120409356725146 -2.499707602339181l4.558690058479532 -0.6009005847953216c0.4887777777777777 -0.06455555555555556 0.9115438596491227 -0.37180116959064324 1.1241403508771928 -0.8164093567251461l1.9798654970760232 -4.15Z" stroke-width="1"></path></g><defs><clipPath id="a"><path fill="#ffffff" d="M124.53349122807018 0s124.25730994152046 0 124.25730994152046 124.25730994152046 0 124.25730994152046 -124.25730994152046 124.25730994152046 -124.25730994152046 0 -124.25730994152046 -124.25730994152046 0 -124.25730994152046 124.25730994152046 -124.25730994152046" stroke-width="1"></path></clipPath></defs></svg>