<svg xmlns="http://www.w3.org/2000/svg" fill="none" viewBox="0 0 513 513" id="Abstract-Avatar-42-Circle--Streamline-Abstract.svg" height="250" width="250" stroke-width="1"><desc>Abstract Avatar 42 Circle Streamline Emoji: https://streamlinehq.com</desc><g clip-path="url(#a)"><path fill="#fafafa" d="M.694.281h512v512h-512z"></path><path fill="#47b86d" d="M448.709 105.603 567.19 547.779c13.3 49.637-68.188 114.597-182.007 145.095-113.819 30.498-216.87 14.984-230.17-34.653L36.5323 216.045C23.2325 166.41 104.72 101.448 218.539 70.9507c113.82-30.4978 216.87-14.9835 230.17 34.6523Z"></path><path stroke="#000000" stroke-linecap="round" stroke-linejoin="round" stroke-width="16" d="M166.53 275.121c20.145 11.165 46.094 4.214 57.956-15.525l-57.956 15.525Z"></path><path stroke="#000000" stroke-linecap="round" stroke-width="16" d="M154.725 207.887c-6.842 12.875-22.41 17.048-34.772 9.32"></path><path stroke="#000000" stroke-linecap="round" stroke-width="16" d="M235.863 186.145c-6.842 12.875-22.411 17.048-34.772 9.32"></path></g><defs><clipPath id="a"><path fill="#ffffff" transform="matrix(1 0 0 -1 .569 512)" d="M256 0s256 0 256 256 0 256-256 256S0 512 0 256 0 0 256 0"></path></clipPath></defs></svg>