<svg xmlns="http://www.w3.org/2000/svg" fill="none" viewBox="-0.5 -0.5 250 250" id="Abstract-Avatar-50-Circle--Streamline-Abstract.svg" height="250" width="250"><desc>Abstract Avatar 50 Circle Streamline Emoji: https://streamlinehq.com</desc><g clip-path="url(#a)"><path fill="#fafafa" d="M0.3368538011695906 0.1363918128654971h248.51461988304092v248.51461988304092h-248.51461988304092z" stroke-width="1"></path><path fill="#80d9ff" d="M47.40989122807017 58.24561403508772s26.617857309941517 58.806228070175436 5.306757894736841 116.49122807017544c-23.81420467836257 64.45702339181285 -4.344297660818714 116.49122807017544 -4.344297660818714 116.49122807017544l147.22273040935673 0s-19.435105263157894 -52.02498245614035 4.359684210526315 -116.47326900584794C221.2576140350877 117.05669590643274 194.50928654970758 58.24561403508772 194.50928654970758 58.24561403508772l-147.09939532163742 0Z" stroke-width="1"></path><path stroke="#000000" stroke-linecap="round" stroke-linejoin="round" stroke-width="1" d="M109.97208771929823 133.96491228070175c8.042748538011695 7.765111111111111 21.08151461988304 7.766081871345029 29.12280701754386 0.0019415204678362573l-29.12280701754386 -0.0019415204678362573Z"></path><path stroke="#000000" stroke-linecap="round" stroke-width="1" d="m112.88436842105261 102.90058479532163 -17.473684210526315 -0.0014561403508771928"></path><path stroke="#000000" stroke-linecap="round" stroke-width="1" d="m153.65629824561404 102.90058479532163 -17.473684210526315 -0.0014561403508771928"></path></g><defs><clipPath id="a"><path fill="#ffffff" d="M124.53349122807018 0s124.25730994152046 0 124.25730994152046 124.25730994152046 0 124.25730994152046 -124.25730994152046 124.25730994152046 -124.25730994152046 0 -124.25730994152046 -124.25730994152046 0 -124.25730994152046 124.25730994152046 -124.25730994152046" stroke-width="1"></path></clipPath></defs></svg>