<svg xmlns="http://www.w3.org/2000/svg" fill="none" viewBox="-0.5 -0.5 250 250" id="Abstract-Avatar-17-Circle--Streamline-Abstract.svg" height="250" width="250"><desc>Abstract Avatar 17 Circle Streamline Emoji: https://streamlinehq.com</desc><g clip-path="url(#a)"><path fill="#fafafa" d="M0.3368538011695906 0.1363918128654971h248.51461988304092v248.51461988304092h-248.51461988304092z" stroke-width="1"></path><path fill="#ffa8af" d="M146.2387192982456 71.94207017543859c0 -11.853467836257309 -9.609070175438596 -21.46253801169591 -21.46253801169591 -21.46253801169591 -11.853467836257309 0 -21.46253801169591 9.609070175438596 -21.46253801169591 21.46253801169591v23.52831578947368l-11.624368421052631 -20.456345029239767c-5.85659649122807 -10.305590643274853 -18.95846198830409 -13.91245029239766 -29.264052631578945 -8.05585380116959 -10.305590643274853 5.856111111111111 -13.912256140350877 18.957976608187135 -8.05585380116959 29.263567251461986l13.228064327485379 23.277859649122806 -23.27781111111111 -13.228064327485379c-10.305590643274853 -5.856111111111111 -23.40740760233918 -2.249736842105263 -29.26376140350877 8.05585380116959s-2.249542690058479 23.407456140350877 8.055999415204678 29.264052631578945l20.456102339181285 11.624368421052631h-23.52831578947368c-11.853322222222221 0 -21.46236812865497 9.609070175438596 -21.46236812865497 21.46253801169591 0 11.853467836257309 9.609045906432748 21.46253801169591 21.46236812865497 21.46253801169591h23.528267251461987l-20.456005263157895 11.624368421052631c-10.305590643274853 5.85659649122807 -13.912401754385964 18.957976608187135 -8.056047953216375 29.263567251461986s18.958170760233916 13.91245029239766 29.26376140350877 8.056339181286548l23.27781111111111 -13.228064327485379 -13.228064327485379 23.277859649122806c-5.856353801169591 10.305590643274853 -2.249736842105263 23.407456140350877 8.05585380116959 29.263567251461986 10.305590643274853 5.85659649122807 23.407456140350877 2.249736842105263 29.264052631578945 -8.05585380116959l11.624368421052631 -20.456345029239767v23.52831578947368c0 11.853467836257309 9.609070175438596 21.46253801169591 21.46253801169591 21.46253801169591 11.853467836257309 0 21.46253801169591 -9.609070175438596 21.46253801169591 -21.46253801169591v-23.52831578947368l11.624368421052631 20.456345029239767c5.856111111111111 10.305590643274853 18.957976608187135 13.91245029239766 29.263567251461986 8.05585380116959 10.305590643274853 -5.856111111111111 13.91245029239766 -18.957976608187135 8.056339181286548 -29.263567251461986l-13.228064327485379 -23.277859649122806 23.277859649122806 13.228064327485379c10.305590643274853 5.856111111111111 23.406970760233914 2.249251461988304 29.263567251461986 -8.056339181286548 5.85659649122807 -10.305590643274853 2.249736842105263 -23.406970760233914 -8.05585380116959 -29.263567251461986l-20.456345029239767 -11.624368421052631h23.52831578947368c11.853467836257309 0 21.46253801169591 -9.609070175438596 21.46253801169591 -21.46253801169591 0 -11.853467836257309 -9.609070175438596 -21.46253801169591 -21.46253801169591 -21.46253801169591h-23.52831578947368l20.456345029239767 -11.624368421052631c10.305590643274853 -5.85659649122807 13.91245029239766 -18.95846198830409 8.05585380116959 -29.264052631578945 -5.856111111111111 -10.305590643274853 -18.957976608187135 -13.9119649122807 -29.263567251461986 -8.05585380116959l-23.277859649122806 13.228064327485379 13.228064327485379 -23.277859649122806c5.856111111111111 -10.305590643274853 2.249251461988304 -23.407456140350877 -8.056339181286548 -29.263567251461986 -10.305590643274853 -5.85659649122807 -23.406970760233914 -2.249736842105263 -29.263567251461986 8.05585380116959l-11.624368421052631 20.456345029239767v-23.52831578947368Z" stroke-width="1"></path><path stroke="#000000" stroke-linecap="round" stroke-width="1" d="M142.24986549707603 182.50292397660817c0 4.825163742690059 -3.9121637426900584 8.736842105263158 -8.738298245614034 8.736842105263158 -4.756239766081871 0 -8.624719298245612 -3.7995555555555556 -8.73538596491228 -8.52861403508772"></path><path stroke="#000000" stroke-linecap="round" stroke-width="1" d="M124.77618128654971 182.50292397660817c0 4.825163742690059 -3.9121637426900584 8.736842105263158 -8.738298245614034 8.736842105263158 -4.756239766081871 0 -8.624719298245612 -3.7995555555555556 -8.73538596491228 -8.52861403508772"></path><path fill="#000000" d="M142.24986549707603 153.3801169590643a5.824561403508771 5.824561403508771 0 1 0 11.649122807017543 0 5.824561403508771 5.824561403508771 0 1 0 -11.649122807017543 0" stroke-width="1"></path><path fill="#000000" d="M95.65337426900584 153.3801169590643a5.824561403508771 5.824561403508771 0 1 0 11.649122807017543 0 5.824561403508771 5.824561403508771 0 1 0 -11.649122807017543 0" stroke-width="1"></path></g><defs><clipPath id="a"><path fill="#ffffff" d="M124.53349122807018 0s124.25730994152046 0 124.25730994152046 124.25730994152046 0 124.25730994152046 -124.25730994152046 124.25730994152046 -124.25730994152046 0 -124.25730994152046 -124.25730994152046 0 -124.25730994152046 124.25730994152046 -124.25730994152046" stroke-width="1"></path></clipPath></defs></svg>