<svg xmlns="http://www.w3.org/2000/svg" fill="none" viewBox="-0.5 -0.5 250 250" id="Abstract-Avatar-1-Circle--Streamline-Abstract.svg" height="250" width="250"><desc>Abstract Avatar 1 Circle Streamline Emoji: https://streamlinehq.com</desc><g clip-path="url(#a)"><path fill="#fafafa" d="M0.3368538011695906 0.1363918128654971h248.51461988304092v248.51461988304092h-248.51461988304092z" stroke-width="1"></path><path fill="#80d9ff" d="M68.88077777777778 54.39266666666666C127.73020467836255 55.77017543859649 175.01302339181285 103.90726315789473 175.01302339181285 163.08771929824562c0 60.047345029239764 -48.67780116959064 108.7251461988304 -108.7251461988304 108.7251461988304 -59.180553216374264 0 -107.31754385964912 -47.28281871345029 -108.69495555555555 -106.13224561403507L-42.437366081871346 54.3625730994152l111.31814385964911 0.030093567251461985Z" stroke-width="1"></path><path fill="#000000" d="M120.65045029239765 137.84795321637426a5.824561403508771 5.824561403508771 0 1 0 11.649122807017543 0 5.824561403508771 5.824561403508771 0 1 0 -11.649122807017543 0" stroke-width="1"></path><path fill="#000000" d="M74.05395906432747 137.84795321637426a5.824561403508771 5.824561403508771 0 1 0 11.649122807017543 0 5.824561403508771 5.824561403508771 0 1 0 -11.649122807017543 0" stroke-width="1"></path><path stroke="#000000" stroke-linecap="round" stroke-width="1" d="M88.6153625730994 157.26315789473682c8.042263157894736 7.765111111111111 21.08102923976608 7.766081871345029 29.12280701754386 0.0019415204678362573"></path></g><defs><clipPath id="a"><path fill="#ffffff" d="M124.53349122807018 0s124.25730994152046 0 124.25730994152046 124.25730994152046 0 124.25730994152046 -124.25730994152046 124.25730994152046 -124.25730994152046 0 -124.25730994152046 -124.25730994152046 0 -124.25730994152046 124.25730994152046 -124.25730994152046" stroke-width="1"></path></clipPath></defs></svg>