<svg xmlns="http://www.w3.org/2000/svg" fill="none" viewBox="-0.5 -0.5 250 250" id="Abstract-Avatar-46-Circle--Streamline-Abstract.svg" height="250" width="250"><desc>Abstract Avatar 46 Circle Streamline Emoji: https://streamlinehq.com</desc><g clip-path="url(#a)"><path fill="#fafafa" d="M0.3368538011695906 0.1363918128654971h248.51461988304092v248.51461988304092h-248.51461988304092z" stroke-width="1"></path><path fill="#80d9ff" d="M216.7557134502924 114.79773684210525C216.7557134502924 64.25898830409356 175.72216374269004 23.298245614035086 125.11546198830408 23.298245614035086 74.51070175438596 23.298245614035086 33.47705497076023 64.2633567251462 33.47705497076023 114.79773684210525c0 34.647888888888886 19.29783976608187 64.79873099415205 47.76004444444444 80.33235087719298L32.31117192982456 374.5445380116959H216.50719883040935L167.75416374269003 195.75234502923976c29.12620467836257 -15.336555555555556 49.00154970760234 -45.81454385964912 49.00154970760234 -80.9546081871345Z" stroke-width="1"></path><path stroke="#000000" stroke-linecap="round" stroke-width="1" d="M142.0071754385965 138.8187134502924c0 4.825163742690059 -3.9121637426900584 8.736842105263158 -8.738298245614034 8.736842105263158 -4.756239766081871 0 -8.624719298245612 -3.7995555555555556 -8.73538596491228 -8.52861403508772"></path><path stroke="#000000" stroke-linecap="round" stroke-width="1" d="M124.53349122807018 138.8187134502924c0 4.825163742690059 -3.9121637426900584 8.736842105263158 -8.738298245614034 8.736842105263158 -4.756239766081871 0 -8.624719298245612 -3.7995555555555556 -8.73538596491228 -8.52861403508772"></path><path fill="#000000" d="M142.0071754385965 109.69590643274853a5.824561403508771 5.824561403508771 0 1 0 11.649122807017543 0 5.824561403508771 5.824561403508771 0 1 0 -11.649122807017543 0" stroke-width="1"></path><path fill="#000000" d="M95.4106842105263 109.69590643274853a5.824561403508771 5.824561403508771 0 1 0 11.649122807017543 0 5.824561403508771 5.824561403508771 0 1 0 -11.649122807017543 0" stroke-width="1"></path></g><defs><clipPath id="a"><path fill="#ffffff" d="M124.53349122807018 0s124.25730994152046 0 124.25730994152046 124.25730994152046 0 124.25730994152046 -124.25730994152046 124.25730994152046 -124.25730994152046 0 -124.25730994152046 -124.25730994152046 0 -124.25730994152046 124.25730994152046 -124.25730994152046" stroke-width="1"></path></clipPath></defs></svg>